<?xml version="1.0" standalone="no"?>
<!DOCTYPE svg PUBLIC "-//W3C//DTD SVG 20010904//EN"
 "http://www.w3.org/TR/2001/REC-SVG-20010904/DTD/svg10.dtd">
<svg version="1.0" xmlns="http://www.w3.org/2000/svg"
 width="130.000000pt" height="130.000000pt" viewBox="0 0 130.000000 130.000000"
 preserveAspectRatio="xMidYMid meet">
<metadata>
Created by potrace 1.11, written by Peter Selinger 2001-2013
</metadata>
<g transform="translate(0.000000,130.000000) scale(0.100000,-0.100000)"
fill="#000000" stroke="none">
<path d="M330 1064 c-151 -124 -288 -236 -303 -248 l-28 -22 61 -110 c34 -60
72 -127 85 -150 l24 -40 65 9 66 10 0 99 c0 54 2 98 4 98 2 0 48 -9 101 -20
53 -11 99 -20 101 -20 2 0 4 50 4 110 l0 110 90 0 89 0 3 103 3 102 108 3 107
3 0 47 0 47 -141 45 c-78 25 -147 46 -153 47 -6 1 -135 -99 -286 -223z"/>
<path d="M950 1134 c0 -41 6 -54 48 -105 26 -32 50 -59 55 -59 4 0 8 29 9 65
1 36 2 75 2 86 1 22 -9 27 -91 53 -22 7 -23 5 -23 -40z"/>
<path d="M1107 1093 c-4 -21 -7 -56 -7 -78 0 -22 -3 -57 -6 -77 l-6 -37 -84 6
-83 6 -3 -103 -3 -104 -88 -16 c-48 -9 -91 -21 -96 -26 -5 -5 -16 -43 -26 -84
-10 -41 -22 -79 -27 -85 -5 -5 -48 -22 -96 -36 l-87 -25 2 -75 2 -75 -57 -12
c-31 -7 -73 -17 -93 -22 l-37 -10 30 -55 c22 -42 33 -53 46 -47 9 3 89 38 177
78 l160 72 133 -131 c72 -73 132 -127 132 -121 0 6 -20 79 -45 164 -25 85 -45
158 -45 164 0 6 77 55 170 110 154 89 170 102 175 130 4 26 55 450 55 461 0 2
-37 16 -82 31 -46 15 -88 29 -94 31 -6 2 -14 -12 -17 -34z"/>
<path d="M835 1000 c49 -50 49 -50 114 -50 l65 0 -49 50 c-49 50 -49 50 -114
50 l-65 0 49 -50z"/>
<path d="M730 964 l0 -82 73 -68 72 -68 3 74 3 74 -76 75 -75 76 0 -81z"/>
<path d="M670 785 c64 -64 80 -71 128 -58 22 5 21 9 -34 64 -56 56 -61 59
-108 59 l-50 0 64 -65z"/>
<path d="M550 748 l0 -96 54 -46 54 -46 17 70 c9 38 15 73 13 77 -1 4 -33 37
-70 72 l-68 64 0 -95z"/>
<path d="M366 647 c4 -6 35 -46 68 -87 33 -41 61 -77 62 -79 4 -5 134 31 139
38 2 4 -23 29 -56 56 -58 48 -78 57 -187 78 -25 5 -31 4 -26 -6z"/>
<path d="M340 547 c0 -50 4 -59 53 -121 l52 -66 3 47 c3 41 -2 54 -44 115 -25
37 -50 71 -55 74 -5 3 -9 -19 -9 -49z"/>
<path d="M222 463 l-33 -4 42 -77 c60 -110 54 -106 130 -87 35 9 66 18 67 20
2 2 -22 37 -53 79 -62 82 -59 80 -153 69z"/>
</g>
</svg>
