<?xml version="1.0" encoding="UTF-8"?>
<svg width="30px" height="31px" viewBox="0 0 30 31" version="1.1" xmlns="http://www.w3.org/2000/svg" xmlns:xlink="http://www.w3.org/1999/xlink">
    <!-- Generator: Sketch 43.2 (39069) - http://www.bohemiancoding.com/sketch -->
    <title>Combined Shape</title>
    <desc>Created with Sketch.</desc>
    <defs></defs>
    <g id="style" stroke="none" stroke-width="1" fill="none" fill-rule="evenodd">
        <path d="M0,30.951 L0,0.951 L30,0.951 L30,30.951 L0,30.951 Z M19.0279756,15.1606829 L11.0304146,14.5460488 L10.9572439,10.4232439 L15.7316341,7.86226829 L19.167,10.7890976 L19.0279756,15.1606829 Z M12.5999268,23.0850732 L13.917,18.9070244 L12.9255366,17.7326341 L14.6230976,15.9619024 L16.8551707,17.6049512 L15.669439,18.9070244 L17.162122,23.0850732 L12.5999268,23.0850732 Z M21.219439,15.1793415 L21.219439,9.54153659 L15.7316341,5.30129268 L8.78041463,9.54153659 L8.78041463,14.4476341 L7.55114634,14.4476341 L7.55114634,25.8695854 L22.317,24.7061707 L22.317,15.1793415 L21.219439,15.1793415 Z" id="Combined-Shape" fill="#FFFFFF"></path>
    </g>
</svg>