<?xml version="1.0" encoding="UTF-8"?>
<svg width="454px" height="456px" viewBox="0 0 454 456" version="1.1" xmlns="http://www.w3.org/2000/svg" xmlns:xlink="http://www.w3.org/1999/xlink">
    <!-- Generator: Sketch 43.2 (39069) - http://www.bohemiancoding.com/sketch -->
    <title>Page 1</title>
    <desc>Created with Sketch.</desc>
    <defs>
        <polygon id="path-1" points="0 0.189429617 0 192.903715 241.951552 192.903715 241.951552 0.189429617"></polygon>
    </defs>
    <g id="Page-1" stroke="none" stroke-width="1" fill="none" fill-rule="evenodd">
        <g id="Desktop-HD" transform="translate(-343.000000, -905.000000)">
            <g id="Page-1" transform="translate(343.000000, 905.000000)">
                <path d="M277.293413,456 L323.508982,295.857143 L222.922156,279.571429 L233.796407,230.714286 L271.856287,228 L236.51497,203.571429 L239.233533,184.571429 L227.842754,174.474286 L313.858084,129.851429 C315.679521,133.352857 319.29521,135.714286 323.508982,135.714286 C329.517006,135.714286 334.383234,130.855714 334.383234,124.857143 C334.383234,118.858571 329.517006,114 323.508982,114 C318.044671,114 313.504671,118.017143 312.770659,123.282857 L224.716407,110.362857 L212.047904,97.7142857 L233.796407,27.1428571 L296.296168,8.22428571 L296.323353,8.14285714 L323.508982,0 L383.317365,5.42857143 L440.407186,76 L454,415.285714 L277.293413,456 Z" id="Fill-1" fill="#333333"></path>
                <g id="Group-5" transform="translate(0.000000, 70.381185)">
                    <mask id="mask-2" fill="white">
                        <use xlink:href="#path-1"></use>
                    </mask>
                    <g id="Clip-4"></g>
                    <polygon id="Fill-3" fill="#333333" mask="url(#mask-2)" points="237.900893 62.428001 214.765923 92.4751439 227.842211 104.095001 40.7778994 192.903715 -0.000543712575 89.7608582 48.933588 0.189429617 224.715863 39.9808582 241.951552 57.1894296"></polygon>
                </g>
            </g>
        </g>
    </g>
</svg>