<?xml version="1.0" encoding="UTF-8"?>
<svg width="315px" height="335px" viewBox="0 0 315 335" version="1.1" xmlns="http://www.w3.org/2000/svg" xmlns:xlink="http://www.w3.org/1999/xlink">
    <!-- Generator: Sketch 43.2 (39069) - http://www.bohemiancoding.com/sketch -->
    <title>Page 1</title>
    <desc>Created with Sketch.</desc>
    <defs>
        <polygon id="path-1" points="0.000215213358 333.846154 260.515985 333.846154 260.515985 0.519292308 0.000215213358 0.519292308"></polygon>
    </defs>
    <g id="Page-1" stroke="none" stroke-width="1" fill="none" fill-rule="evenodd">
        <g id="Desktop-HD" transform="translate(-175.000000, -540.000000)">
            <g id="Page-1" transform="translate(332.500000, 707.500000) scale(-1, 1) rotate(180.000000) translate(-332.500000, -707.500000) translate(175.000000, 540.000000)">
                <g id="Group-3" transform="translate(0.000000, 0.268916)">
                    <mask id="mask-2" fill="white">
                        <use xlink:href="#path-1"></use>
                    </mask>
                    <g id="Clip-2"></g>
                    <path d="M140.147154,139.138677 C135.606152,139.138677 131.904482,135.434062 131.904482,130.867908 C131.904482,126.325446 135.606152,122.618677 140.147154,122.618677 C144.709677,122.618677 148.389826,126.325446 148.389826,130.867908 C148.389826,135.434062 144.709677,139.138677 140.147154,139.138677 L140.147154,139.138677 Z M227.545299,155.637138 L260.515985,135.821754 L178.089269,26.9232923 L75.8414026,0.519292308 L0.000215213358,83.0309846 L69.2558738,320.645446 L197.867377,333.846369 L178.089269,254.649446 L240.737878,267.854677 L240.737878,201.837138 L211.059955,201.837138 L240.737878,172.1356 L227.545299,155.637138 Z" id="Fill-1" fill="#333333" mask="url(#mask-2)"></path>
                </g>
                <polygon id="Fill-4" fill="#333333" points="272.95833 175.717992 268.778887 168.188146 307.517291 146.649685 311.696735 154.179531"></polygon>
                <polygon id="Fill-6" fill="#333333" points="313.435874 202.0815 274.697469 197.773808 275.64656 189.207962 314.384965 193.515654"></polygon>
            </g>
        </g>
    </g>
</svg>